# AST/ASF file generated using VICON BodyLanguage
# -----------------------------------------------
:version 1.10
:name VICON
:units
  mass 1.0
  length 0.45
  angle deg
:documentation
   .ast/.asf automatically generated from VICON data using
   VICON BodyBuilder and BodyLanguage model FoxedUp or BRILLIANT.MOD
:root
   order TX TY TZ RX RY RZ
   axis XYZ
   position 0 0 0  
   orientation 0 0 0 
:bonedata
  begin
     id 1 
     name lhipjoint
     direction 0.693937 -0.600361 0.397515 
     length 2.37164 
     axis 0 0 0  XYZ
  end
  begin
     id 2 
     name lfemur
     direction 0.34202 -0.939693 0  
     length 6.18497  
     axis 0 0 20  XYZ
    dof rx ry rz
    limits (-160.0 20.0)
           (-70.0 70.0)
           (-60.0 70.0)
  end
  begin
     id 3 
     name ltibia
     direction 0.34202 -0.939693 0   
     length 6.91601   
     axis 0 0 20   XYZ
    dof rx
    limits (-10.0 170.0)
  end
  begin
     id 4 
     name lfoot
     direction 0.0978718 -0.2689 0.958182   
     length 1.81453   
     axis -90 7.62852e-016 20   XYZ
    dof rx rz
    limits (-45.0 90.0)
           (-70.0 20.0)
  end
  begin
     id 5 
     name ltoes
     direction 1.53569e-011 -4.21951e-011 1   
     length 0.912052   
     axis -90 7.62852e-016 20   XYZ
    dof rx
    limits (-90.0 20.0)
  end
  begin
     id 6 
     name rhipjoint
     direction -0.643996 -0.637876 0.422354   
     length 2.23216  
     axis 0 0 0  XYZ 
  end
  begin
     id 7 
     name rfemur
     direction -0.34202 -0.939693 0   
     length 6.15404   
     axis 0 0 -20   XYZ
    dof rx ry rz
    limits (-160.0 20.0)
           (-70.0 70.0)
           (-70.0 60.0)
  end
  begin
     id 8 
     name rtibia
     direction -0.34202 -0.939693 0   
     length 6.86744   
     axis 0 0 -20   XYZ
    dof rx
    limits (-10.0 170.0)
 end
 begin
     id 9 
     name rfoot
     direction -0.118701 -0.326127 0.937844   
     length 1.9243  
     axis -90 -7.62852e-016 -20   XYZ
    dof rx rz
    limits (-45.0 90.0)
           (-20.0 70.0)
  end
  begin
     id 10 
     name rtoes
     direction -1.5356e-011 -4.2181e-011 1   
     length 0.958865   
     axis -90 -7.62852e-016 -20   XYZ
    dof rx
    limits (-90.0 20.0)
  end
  begin
     id 11 
     name lowerback
     direction 0.0310826 0.968686 -0.246334   
     length 2.00021   
     axis 0 0 0   XYZ
    dof rx ry rz
    limits (-20.0 45.0)
           (-30.0 30.0)
           (-30.0 30.0)
  end
  begin
     id 12 
     name upperback
     direction -0.0152834 0.999474 -0.0286152   
     length 2.03728   
     axis 0 0 0   XYZ
    dof rx ry rz
    limits (-20.0 45.0)
           (-30.0 30.0)
           (-30.0 30.0)
  end
  begin
     id 13 
     name thorax
     direction -0.0323701 0.996236 0.0804149   
     length 2.16   
     axis 0 0 0   XYZ
    dof rx ry rz
    limits (-20.0 45.0)
           (-30.0 30.0)
           (-30.0 30.0)
  end
  begin
     id 14 
     name lowerneck
     direction 0.0307935 0.982251 0.185027   
     length 1.43558   
     axis 0 0 0   XYZ
    dof rx ry rz
    limits (-20.0 45.0)
           (-30.0 30.0)
           (-30.0 30.0)
  end
  begin
     id 15 
     name upperneck
     direction -0.0927153 0.994775 0.0427454   
     length 1.44603   
     axis 0 0 0   XYZ
    dof rx ry rz
    limits (-20.0 45.0)
           (-30.0 30.0)
           (-30.0 30.0)
  end
  begin
     id 16
     name head
     direction -0.0341265 0.999406 -0.00472033  
     length 1.45931  
     axis 0 0 0   XYZ
    dof rx ry rz
    limits (-20.0 45.0)
           (-30.0 30.0)
           (-30.0 30.0)
  end
  begin
     id 17 
     name lclavicle
     direction 0.820755 0.555306 -0.134151  
     length 2.66075  
     axis 0 0 0   XYZ
    dof ry rz
    limits (-20.0 10.0)
           (0.0 20.0)
  end
  begin
     id 18 
     name lhumerus
     direction 1 -4.48971e-011 5.24853e-027   
     length 5.0546   
     axis -180 -30 -90   XYZ
    dof rx ry rz
    limits (-60.0 90.0)
           (-90.0 90.0)
           (-90.0 90.0)
  end
  begin
     id 19
     name lradius
     direction 1 -4.48971e-011 2.76575e-028   
     length 3.39013   
     axis -180 -30 -90   XYZ
    dof rx
    limits (-10.0 170.0)
  end
  begin
     id 20
     name lwrist
     direction 1 -4.48939e-011 -2.27826e-027   
     length 1.69507   
     axis 2.17013e-015 90 90   XYZ
    dof ry
    limits (-180.0 0.0)
 end
  begin
     id 21 
     name lhand
     direction 1 -4.49009e-011 -4.55652e-027   
     length 0.572425   
     axis 2.90745e-015 90 90   XYZ
    dof rx rz
    limits (-90.0 90.0)
           (-45.0 45.0)
  end
  begin
     id 22 
     name lfingers
     direction 1 -4.48955e-011 -9.11303e-027   
     length 0.461504   
     axis 5.81489e-015 90 90   XYZ
    dof rx
    limits (0.0 90.0)
  end
  begin
     id 23
     name lthumb
     direction 0.707107 -6.34929e-011 0.707107   
     length 0.66263   
     axis -90 45 2.85299e-015   XYZ
    dof rx rz
    limits (-45.0 45.0)
           (-45.0 45.0)
  end
  begin
     id 24 
     name rclavicle
     direction -0.754477 0.632921 -0.173712   
     length 2.73081  
     axis 0 0 0   XYZ 
    dof ry rz
    limits (-10.0 20.0)
           (-20.0 0.0)
  end
  begin
     id 25 
     name rhumerus
     direction -1 -4.48969e-011 5.1496e-027  
     length 5.0701   
     axis -180 30 90   XYZ
    dof rx ry rz
    limits (-90.0 60.0)
           (-90.0 90.0)
           (-90.0 90.0)
  end
  begin
     id 26 
     name rradius
     direction -1 -4.48967e-011 -7.15624e-028   
     length 3.14957   
     axis -180 30 90   XYZ
    dof rx
    limits (-10.0 170.0)
  end
  begin
     id 27 
     name rwrist
     direction -1 -4.48938e-011 -2.27826e-027   
     length 1.57479   
     axis 2.17013e-015 -90 -90   XYZ
    dof ry
    limits (-180.0 0.0)
  end
  begin
     id 28
     name rhand
     direction -1 -4.49008e-011 -4.55652e-027   
     length 0.718191   
     axis 2.90745e-015 -90 -90   XYZ
    dof rx rz
    limits (-90.0 90.0)
           (-45.0 45.0)
  end
  begin
     id 29
     name rfingers
     direction -1 -4.48953e-011 -9.11303e-027   
     length 0.579024   
     axis 5.81489e-015 -90 -90   XYZ
    dof rx
    limits (0.0 90.0)
  end
  begin
     id 30
     name rthumb
     direction -0.707107 -6.34937e-011 0.707107   
     length 0.831366   
     axis -90 -45 -2.85299e-015   XYZ
    dof rx rz
    limits (-45.0 45.0)
           (-45.0 45.0)
  end
:hierarchy
  begin
    root lhipjoint rhipjoint lowerback
    lhipjoint lfemur
    lfemur ltibia
    ltibia lfoot
    lfoot ltoes
    rhipjoint rfemur
    rfemur rtibia
    rtibia rfoot
    rfoot rtoes
    lowerback upperback
    upperback thorax
    thorax lowerneck lclavicle rclavicle
    lowerneck upperneck
    upperneck head
    lclavicle lhumerus
    lhumerus lradius
    lradius lwrist
    lwrist lhand lthumb
    lhand lfingers
    rclavicle rhumerus
    rhumerus rradius
    rradius rwrist
    rwrist rhand rthumb
    rhand rfingers
  end

#!OML:ASF H:\Male1\Project 1\Capture day 1\Session 1\Male1.ASF
:FULLY-SPECIFIED
:DEGREES
1
root 7.50751 15.4942 -0.512026 174.992 -58.6808 -177.071
lowerback 3.46078 0.970294 -2.84308
upperback 3.89511 1.12875 -1.3846
thorax 2.034 0.457568 0.149745
lowerneck -0.180902 -4.77065 4.96855
upperneck 2.2907 -6.45462 0.664156
head 0.593651 -3.19642 -0.637623
rclavicle 4.21423e-014 2.22639e-014
rhumerus 14.5619 15.9 -65.5883
rradius 135.768
rwrist -17.5959
rhand -36.769 8.99938
rfingers 7.12502
rthumb -9.85178 -20.7501
lclavicle 4.21423e-014 2.22639e-014
lhumerus -34.6138 13.978 77.2366
lradius 31.3765
lwrist -2.03238
lhand -18.901 13.991
lfingers 7.12502
lthumb 7.40076 43.8416
rfemur -4.54245 15.1928 23.0404
rtibia 22.5556
rfoot -38.6652 -33.5459
rtoes 0.117879
lfemur -3.4587 -14.6181 -21.3151
ltibia 25.026
lfoot -32.8812 30.0526
ltoes 16.4267
2
root 7.50877 15.493 -0.510837 174.981 -58.7336 -177.072
lowerback 3.50052 0.94983 -2.85709
upperback 3.87874 1.09959 -1.37212
thorax 1.99505 0.443307 0.170227
lowerneck -0.106213 -4.77915 4.99409
upperneck 2.24169 -6.45886 0.613054
head 0.563678 -3.1998 -0.654183
rclavicle 6.50026e-014 -1.98785e-014
rhumerus 14.4412 15.9981 -65.4831
rradius 135.636
rwrist -17.537
rhand -37.009 9.90756
rfingers 7.12502
rthumb -10.0833 -19.8309
lclavicle 6.50026e-014 -1.98785e-014
lhumerus -34.6416 14.0285 77.1995
lradius 31.3269
lwrist -2.09266
lhand -18.8785 14.0282
lfingers 7.12502
lthumb 7.42242 43.878
rfemur -4.52854 15.0539 23.0422
rtibia 22.5388
rfoot -38.3303 -33.7959
rtoes -1.13392
lfemur -3.48969 -14.6187 -21.3081
ltibia 25.0733
lfoot -32.9675 29.905
ltoes 16.6644
3
root 7.51044 15.4912 -0.5101 174.831 -58.7699 -176.956
lowerback 3.48826 0.96274 -2.73797
upperback 3.95484 1.11861 -1.38837
thorax 2.08235 0.453123 0.0872385
lowerneck -0.111133 -4.79967 4.99272
upperneck 2.12642 -6.4842 0.657348
head 0.529961 -3.21427 -0.638208
rclavicle -1.48393e-013 2.06736e-014
rhumerus 14.889 15.9426 -65.5235
rradius 135.875
rwrist -17.3238
rhand -36.8962 9.55071
rfingers 7.12502
rthumb -9.97447 -20.193
lclavicle -1.48393e-013 2.06736e-014
lhumerus -34.5447 14.0305 77.1676
lradius 31.3386
lwrist -2.18672
lhand -18.8029 14.1514
lfingers 7.12502
lthumb 7.49542 43.9986
rfemur -4.4398 14.9723 23.1262
rtibia 22.5396
rfoot -38.5519 -33.511
rtoes -0.400716
lfemur -3.45026 -14.6405 -21.2539
ltibia 25.0873
lfoot -32.9845 29.8574
ltoes 16.6912
4
root 7.51184 15.4923 -0.510351 174.827 -58.8031 -176.932
lowerback 3.51237 0.957011 -2.75498
upperback 3.93252 1.11 -1.36706
thorax 2.04529 0.449162 0.118296
lowerneck -0.024462 -4.78202 4.89575
upperneck 2.01507 -6.45306 0.719356
head 0.487038 -3.2013 -0.598707
rclavicle 5.4467e-014 9.54166e-015
rhumerus 14.8363 16.0874 -65.5051
rradius 136.056
rwrist -17.0544
rhand -36.7983 9.66924
rfingers 7.12502
rthumb -9.88008 -20.0789
lclavicle 5.4467e-014 9.54166e-015
lhumerus -34.6385 14.0695 77.1617
lradius 31.4491
lwrist -2.08431
lhand -18.8548 13.9983
lfingers 7.12502
lthumb 7.44526 43.8473
rfemur -4.45255 15.1196 23.137
rtibia 22.5522
rfoot -39.0814 -33.2212
rtoes 1.12818
lfemur -3.48089 -14.6036 -21.2315
ltibia 25.0891
lfoot -32.8414 29.8882
ltoes 16.2997
5
root 7.51254 15.4921 -0.51025 174.857 -58.8468 -176.972
lowerback 3.51484 0.958974 -2.77397
upperback 3.95105 1.11169 -1.37442
thorax 2.06284 0.448863 0.121374
lowerneck -0.033514 -4.77538 4.88449
upperneck 1.94379 -6.44242 0.724162
head 0.467355 -3.19715 -0.594306
rclavicle -2.43511e-014 -6.36111e-015
rhumerus 14.8712 16.1546 -65.4836
rradius 136.183
rwrist -16.7998
rhand -36.7863 9.96877
rfingers 7.12502
rthumb -9.8685 -19.78
lclavicle -2.43511e-014 -6.36111e-015
lhumerus -34.6205 14.0978 77.1513
lradius 31.4812
lwrist -2.06308
lhand -18.8592 13.9842
lfingers 7.12502
lthumb 7.44106 43.8334
rfemur -4.4471 15.1864 23.1193
rtibia 22.5829
rfoot -39.3742 -33.0694
rtoes 1.81799
lfemur -3.47481 -14.6071 -21.2552
ltibia 25.0698
lfoot -32.7908 29.8795
ltoes 16.2003
6
root 7.5127 15.492 -0.510424 174.932 -58.8923 -177.062
lowerback 3.51157 0.968847 -2.81453
upperback 3.97517 1.12352 -1.39547
thorax 2.08908 0.452889 0.122367
lowerneck -0.094343 -4.7695 4.90567
upperneck 1.89845 -6.43624 0.707694
head 0.462401 -3.19443 -0.603724
rclavicle -6.69904e-014 5.64548e-014
rhumerus 14.8516 16.1981 -65.4679
rradius 136.314
rwrist -16.5089
rhand -36.7709 10.3693
rfingers 7.12502
rthumb -9.8536 -19.3801
lclavicle -6.69904e-014 5.64548e-014
lhumerus -34.5794 14.1156 77.1441
lradius 31.5131
lwrist -2.03329
lhand -18.8541 13.9938
lfingers 7.12502
lthumb 7.44596 43.8427
rfemur -4.45906 15.275 23.0726
rtibia 22.627
rfoot -39.6111 -33.0123
rtoes 2.26077
lfemur -3.45746 -14.6226 -21.3093
ltibia 25.0288
lfoot -32.7443 29.8804
ltoes 16.1593
7
root 7.51254 15.492 -0.510774 175.03 -58.9373 -177.176
lowerback 3.51343 0.990188 -2.85926
upperback 3.99639 1.15023 -1.42912
thorax 2.10931 0.464403 0.112396
lowerneck -0.18911 -4.77337 4.95964
upperneck 1.87833 -6.44577 0.675966
head 0.468973 -3.1989 -0.624632
rclavicle -2.28602e-015 3.18055e-015
rhumerus 14.7308 16.2038 -65.4593
rradius 136.433
rwrist -16.2051
rhand -36.7655 10.9138
rfingers 7.12502
rthumb -9.84837 -18.8359
lclavicle -2.28602e-015 3.18055e-015
lhumerus -34.5271 14.1118 77.137
lradius 31.5453
lwrist -2.00122
lhand -18.8295 14.0314
lfingers 7.12502
lthumb 7.46969 43.8795
rfemur -4.48014 15.3475 23.0104
rtibia 22.6778
rfoot -39.7656 -33.0244
rtoes 2.43895
lfemur -3.43762 -14.6507 -21.3785
ltibia 24.9829
lfoot -32.7139 29.885
ltoes 16.1878
8
root 7.5124 15.492 -0.511214 175.118 -58.9789 -177.28
lowerback 3.52113 1.02192 -2.88883
upperback 4.01516 1.19078 -1.46964
thorax 2.12385 0.483371 0.0865493
lowerneck -0.293918 -4.79056 5.02592
upperneck 1.86654 -6.47427 0.646638
head 0.479068 -3.21265 -0.647284
rclavicle -2.24627e-014 3.49861e-014
rhumerus 14.5229 16.1646 -65.4654
rradius 136.54
rwrist -15.9113
rhand -36.7545 11.559
rfingers 7.12502
rthumb -9.83784 -18.1911
lclavicle -2.24627e-014 3.49861e-014
lhumerus -34.4676 14.0885 77.1302
lradius 31.578
lwrist -1.97733
lhand -18.7848 14.0955
lfingers 7.12502
lthumb 7.51284 43.9421
rfemur -4.50039 15.3757 22.9522
rtibia 22.721
rfoot -39.8134 -33.0905
rtoes 2.36203
lfemur -3.41931 -14.6899 -21.4428
ltibia 24.9418
lfoot -32.6988 29.8948
ltoes 16.2485
9
root 7.5126 15.492 -0.511617 175.17 -59.0146 -177.343
lowerback 3.54151 1.05815 -2.89358
upperback 4.02657 1.23735 -1.50719
thorax 2.12396 0.506304 0.0495444
lowerneck -0.383868 -4.81653 5.08327
upperneck 1.84745 -6.51381 0.629568
head 0.484894 -3.23217 -0.664164
rclavicle -8.15017e-015 -8.74653e-015
rhumerus 14.2691 16.0884 -65.4932
rradius 136.655
rwrist -15.6547
rhand -36.6921 12.1803
rfingers 7.12502
rthumb -9.77755 -17.5727
lclavicle -8.15017e-015 -8.74653e-015
lhumerus -34.4211 14.0558 77.1231
lradius 31.6182
lwrist -1.96096
lhand -18.736 14.1642
lfingers 7.12502
lthumb 7.56002 44.0091
rfemur -4.51301 15.3418 22.9144
rtibia 22.7475
rfoot -39.7675 -33.159
rtoes 2.162
lfemur -3.40826 -14.7315 -21.4827
ltibia 24.9154
lfoot -32.6946 29.9015
ltoes 16.3162
